#N canvas -2 202 432 497 10;
#X declare -stdpath extra/moocow -stdlib extra/pdstring;
#X msg 151 92 devicename /dev/ttyUSB0;
#X msg 168 117 close;
#X obj 151 225 route analog digital;
#X obj 209 292 route 0 1 2 3 4 5;
#X floatatom 363 342 5 0 0 0 - - -;
#X floatatom 296 342 5 0 0 0 - - -;
#X floatatom 212 342 5 0 0 0 - - -;
#X floatatom 164 343 5 0 0 0 - - -;
#X obj 66 292 route 0;
#X msg 49 121 version;
#X msg 85 93 firmware;
#X msg 25 150 devices;
#X obj 151 167 arduino;
#X floatatom 66 342 5 0 0 0 - - -;
#X obj 164 376 change;
#X obj 212 376 change;
#X obj 164 441 outlet;
#X obj 296 441 outlet;
#X obj 363 441 outlet;
#X obj 151 67 loadbang;
#X obj 296 376 sel 1;
#X obj 164 410 bng 15 250 50 0 empty empty empty 17 7 0 10 -262144
-1 -1;
#X obj 296 410 bng 15 250 50 0 empty empty empty 17 7 0 10 -262144
-1 -1;
#X obj 363 411 bng 15 250 50 0 empty empty empty 17 7 0 10 -262144
-1 -1;
#X obj 190 191 print [arduino-driver];
#X obj 363 376 sel 1;
#X text 46 271 Expression pedal;
#X text 219 270 Switch pedals;
#X text 19 13 ARDUINO DRIVER;
#X obj 212 441 outlet;
#X obj 212 410 bng 15 250 50 0 empty empty empty 17 7 0 10 -262144
-1 -1;
#X text 19 29 This is highly hardware specific;
#X text 163 461 Stereo pedal;
#X connect 0 0 12 0;
#X connect 1 0 12 0;
#X connect 2 0 8 0;
#X connect 2 1 3 0;
#X connect 3 2 7 0;
#X connect 3 3 6 0;
#X connect 3 4 5 0;
#X connect 3 5 4 0;
#X connect 4 0 25 0;
#X connect 5 0 20 0;
#X connect 6 0 15 0;
#X connect 7 0 14 0;
#X connect 8 0 13 0;
#X connect 9 0 12 0;
#X connect 10 0 12 0;
#X connect 11 0 12 0;
#X connect 12 0 2 0;
#X connect 12 1 24 0;
#X connect 14 0 21 0;
#X connect 15 0 30 0;
#X connect 19 0 0 0;
#X connect 20 0 22 0;
#X connect 21 0 16 0;
#X connect 22 0 17 0;
#X connect 23 0 18 0;
#X connect 25 0 23 0;
#X connect 30 0 29 0;
