#N canvas 209 192 1447 847 10;
#X floatatom 596 470 5 0 0 0 - - -;
#X obj 707 608 float;
#X floatatom 734 470 5 0 0 0 - - -;
#X obj 1047 441 /;
#X obj 1047 530 int;
#X obj 1047 508 + 0.5;
#X floatatom 1047 552 5 0 0 0 - - -;
#X obj 1047 617 / 16;
#X obj 1031 173 == 0;
#X obj 1031 199 sel 1;
#X msg 1031 225 0;
#X text 1077 180 If there are no more loops \,;
#X text 950 25 How many loops exist;
#X obj 992 119 + 0;
#X msg 1044 76 1;
#X msg 948 76 -1;
#X floatatom 1065 136 5 0 0 0 - - -;
#X obj 992 145 moses 0;
#X text 1108 122 Loop counter;
#X text 1045 353 Force loopsize to be multiple of a ref;
#X obj -58 55 inlet;
#X obj 1047 644 *;
#X floatatom 1047 408 5 0 0 0 - - -;
#X floatatom 1155 425 5 0 0 0 - - -;
#X obj 1047 474 * 16;
#X text 892 523 Round to a whole number;
#X text 899 442 Get ratio incoming/ref;
#X floatatom 1155 513 5 0 0 0 - - -;
#X text 1197 514 Number of beats;
#X text 1197 528 in a bar;
#X text 941 616 Back to a ratio;
#X text 924 645 Back to a loopsize;
#X text 875 537 of beats (ie \, synchronize);
#X text 880 476 Find how many beats it is;
#X text 596 11 PROCESS;
#X text 950 11 LOOP COUNTER;
#X text -61 11 CONFIG INLET;
#X obj 596 608 float;
#X obj 707 582 bang;
#X obj 596 582 bang;
#X obj 596 527 != 0;
#X obj 596 553 route 1;
#X obj 707 422 t b f;
#X obj 596 498 float;
#X obj 259 54 inlet;
#X obj 259 165 route 1 2 3 4;
#X text 47 263 Loop size;
#X obj 113 239 t f f;
#X obj 598 55 r \$0-process;
#X obj 598 81 sel 0;
#X obj 625 112 t f b;
#X obj 113 316 change;
#X obj 113 291 != 0;
#X floatatom 140 263 5 0 0 0 - - -;
#X floatatom 121 679 5 0 0 0 - - -;
#X obj 121 526 list prepend;
#X floatatom 121 694 8 0 0 0 - - -;
#X obj 121 550 route 1 2 3 4;
#X obj 282 526 list prepend;
#X obj 282 550 route 1 2 3 4;
#X obj 286 108 list split 1;
#X obj 259 82 t l l;
#X text 350 165 Then process depending on channel;
#X obj 286 132 s \$0-channel;
#X obj 190 505 r \$0-channel;
#X obj 351 505 r \$0-channel;
#X text 112 413 Channel 1;
#X obj 113 367 float;
#X obj 113 392 s \$0-process;
#X text 684 451 Incoming loop size;
#X text 540 451 Main loop size;
#X text 1076 193 reset main loop size;
#X text 707 694 this loop becomes the main loop;
#X text 489 694 synchronize the incoming loop size;
#X text 595 334 LOOP CHECKER;
#X text 596 351 Determine if this loop must be synchronized;
#X text 1197 425 Main loop size;
#X text 923 409 Incoming loop size;
#X floatatom 171 679 5 0 0 0 - - -;
#X floatatom 171 694 8 0 0 0 - - -;
#X obj 204 239 t f f;
#X obj 204 316 change;
#X obj 204 291 != 0;
#X floatatom 231 263 5 0 0 0 - - -;
#X obj 204 367 float;
#X obj 204 392 s \$0-process;
#X text 203 413 Channel 2;
#X obj 334 190 print Invalid channel;
#X obj 113 342 bang;
#X obj 204 341 bang;
#X obj -36 540 list prepend;
#X obj -36 564 route 1 2 3 4;
#X obj 33 519 r \$0-channel;
#X obj 123 664 tgl 15 0 empty empty empty 17 7 0 10 -262144 -1 -1 0
5790;
#X obj 171 664 tgl 15 0 empty empty empty 17 7 0 10 -262144 -1 -1 0
1;
#X obj 1048 769 list prepend;
#X obj 1155 726 r \$0-channel;
#X obj 1048 806 outlet;
#X obj -63 512 sel 0;
#X msg -63 583 0;
#X obj 296 239 t f f;
#X obj 296 316 change;
#X obj 296 291 != 0;
#X floatatom 323 263 5 0 0 0 - - -;
#X obj 296 367 float;
#X obj 296 392 s \$0-process;
#X obj 296 341 bang;
#X text 295 413 Channel 3;
#X obj 389 239 t f f;
#X obj 389 316 change;
#X obj 389 291 != 0;
#X floatatom 416 263 5 0 0 0 - - -;
#X obj 389 367 float;
#X obj 389 392 s \$0-process;
#X obj 389 341 bang;
#X text 388 413 Channel 4;
#X text -59 30 Number of beats in the main loop;
#X text 255 29 Takes a list as argument \, where:;
#X text 313 44 - 1st elem is the channel;
#X text 325 59 (ie the loop number);
#X text 312 74 - 2nd elem is the loopsize;
#X text 255 11 LOOPERS INLET;
#X text 369 133 Set channel at first;
#X text -57 294 We distinguish two states:;
#X text -77 308 looper has a loop (size != 0);
#X text -83 321 looper has no loop (size == 0);
#X text -112 335 We process only when state changes.;
#X text -106 349 Benefits: discard looper feedback \,;
#X text -64 363 keep the loop counter true.;
#X text 642 193 Loop erased;
#X text 667 112 New loop created;
#X obj 598 192 t f b;
#X obj 652 137 s \$0-counter++;
#X obj 1044 51 r \$0-counter++;
#X obj 625 217 s \$0-counter--;
#X obj 948 51 r \$0-counter--;
#X obj 707 379 r \$0-inloop-check;
#X obj 625 159 s \$0-inloop-check;
#X obj 596 657 s \$0-inloop-sync;
#X obj 1047 379 r \$0-inloop-sync;
#X obj 707 657 s \$0-mainloop-set;
#X obj 596 379 r \$0-mainloop-set;
#X obj 1155 402 r \$0-mainloop-set;
#X obj 1031 261 s \$0-mainloop-set;
#X obj -63 485 r \$0-mainloop-set;
#X obj -58 86 s \$0-nbeats-set;
#X obj 1155 490 r \$0-nbeats-set;
#X obj 720 633 s \$0-loopsize-disp;
#X obj 282 485 r \$0-loopsize-disp;
#X obj 121 485 r \$0-nbeats-disp;
#X obj 1110 603 s \$0-nbeats-disp;
#X obj 1075 695 s \$0-loopsize-disp;
#X text 1105 136 (ensure it never goes;
#X text 1108 150 below zero);
#X floatatom 221 679 5 0 0 0 - - -;
#X floatatom 221 694 8 0 0 0 - - -;
#X floatatom 271 679 5 0 0 0 - - -;
#X floatatom 271 694 8 0 0 0 - - -;
#X obj 221 664 tgl 15 0 empty empty empty 17 7 0 10 -262144 -1 -1 0
1;
#X obj 271 664 tgl 15 0 empty empty empty 17 7 0 10 -262144 -1 -1 0
1;
#X text 87 695 Size;
#X text 83 678 Beats;
#X text 87 663 Main;
#X text -63 444 DISPLAY;
#X text 706 679 If mainloop size is zero \,;
#X text 528 680 If mainloop size is defined \,;
#X obj 1047 579 trigger f f;
#X obj 1048 670 t f f;
#X floatatom 1155 753 5 0 0 0 - - -;
#X text 1195 754 Channel;
#X obj 613 239 s \$0-loopsize-disp;
#X obj 598 261 s \$0-nbeats-disp;
#X text 1044 334 LOOP SYNCHRONIZER & OUTLET;
#X text -95 814 (C) Copyright 2014 \, released under the GNU GPL v3
or later;
#X connect 0 0 43 1;
#X connect 1 0 140 0;
#X connect 1 0 147 0;
#X connect 2 0 1 1;
#X connect 2 0 37 1;
#X connect 3 0 24 0;
#X connect 4 0 6 0;
#X connect 5 0 4 0;
#X connect 6 0 166 0;
#X connect 7 0 21 0;
#X connect 8 0 9 0;
#X connect 9 0 10 0;
#X connect 10 0 143 0;
#X connect 13 0 17 0;
#X connect 14 0 13 0;
#X connect 15 0 13 0;
#X connect 16 0 13 1;
#X connect 17 1 16 0;
#X connect 17 1 8 0;
#X connect 20 0 145 0;
#X connect 21 0 167 0;
#X connect 22 0 3 0;
#X connect 23 0 3 1;
#X connect 23 0 21 1;
#X connect 24 0 5 0;
#X connect 27 0 24 1;
#X connect 27 0 7 1;
#X connect 37 0 138 0;
#X connect 38 0 1 0;
#X connect 39 0 37 0;
#X connect 40 0 41 0;
#X connect 41 0 39 0;
#X connect 41 1 38 0;
#X connect 42 0 43 0;
#X connect 42 1 2 0;
#X connect 43 0 40 0;
#X connect 44 0 61 0;
#X connect 45 0 47 0;
#X connect 45 1 80 0;
#X connect 45 2 100 0;
#X connect 45 3 108 0;
#X connect 45 4 87 0;
#X connect 47 0 52 0;
#X connect 47 1 53 0;
#X connect 48 0 49 0;
#X connect 49 0 131 0;
#X connect 49 1 50 0;
#X connect 50 0 137 0;
#X connect 50 1 132 0;
#X connect 51 0 88 0;
#X connect 52 0 51 0;
#X connect 53 0 67 1;
#X connect 55 0 57 0;
#X connect 57 0 54 0;
#X connect 57 1 78 0;
#X connect 57 2 154 0;
#X connect 57 3 156 0;
#X connect 58 0 59 0;
#X connect 59 0 56 0;
#X connect 59 1 79 0;
#X connect 59 2 155 0;
#X connect 59 3 157 0;
#X connect 60 0 63 0;
#X connect 61 0 45 0;
#X connect 61 1 60 0;
#X connect 64 0 55 1;
#X connect 65 0 58 1;
#X connect 67 0 68 0;
#X connect 80 0 82 0;
#X connect 80 1 83 0;
#X connect 81 0 89 0;
#X connect 82 0 81 0;
#X connect 83 0 84 1;
#X connect 84 0 85 0;
#X connect 88 0 67 0;
#X connect 89 0 84 0;
#X connect 90 0 91 0;
#X connect 91 0 93 0;
#X connect 91 1 94 0;
#X connect 91 2 158 0;
#X connect 91 3 159 0;
#X connect 92 0 90 1;
#X connect 95 0 97 0;
#X connect 96 0 168 0;
#X connect 98 0 99 0;
#X connect 98 1 90 0;
#X connect 99 0 93 0;
#X connect 99 0 94 0;
#X connect 99 0 158 0;
#X connect 99 0 159 0;
#X connect 100 0 102 0;
#X connect 100 1 103 0;
#X connect 101 0 106 0;
#X connect 102 0 101 0;
#X connect 103 0 104 1;
#X connect 104 0 105 0;
#X connect 106 0 104 0;
#X connect 108 0 110 0;
#X connect 108 1 111 0;
#X connect 109 0 114 0;
#X connect 110 0 109 0;
#X connect 111 0 112 1;
#X connect 112 0 113 0;
#X connect 114 0 112 0;
#X connect 131 0 170 0;
#X connect 131 0 171 0;
#X connect 131 1 134 0;
#X connect 133 0 14 0;
#X connect 135 0 15 0;
#X connect 136 0 42 0;
#X connect 139 0 22 0;
#X connect 141 0 0 0;
#X connect 142 0 23 0;
#X connect 144 0 98 0;
#X connect 146 0 27 0;
#X connect 148 0 58 0;
#X connect 149 0 55 0;
#X connect 166 0 7 0;
#X connect 166 1 150 0;
#X connect 167 0 95 0;
#X connect 167 1 151 0;
#X connect 168 0 95 1;
#X coords 0 -1 1 1 250 70 1 80 640;
