#N canvas 806 266 602 487 10;
#X declare -stdpath extra/moocow -stdlib extra/pdstring;
#X obj 126 34 adc~;
#X msg 220 89 stop;
#X obj 128 340 output~;
#X obj 220 34 arduino-driver;
#X obj 127 239 looper~;
#X obj 39 109 vu 15 120 empty empty -1 -8 0 10 -66577 -1 1 0;
#X obj 38 52 env~;
#X obj 38 82 - 100;
#X msg 255 89 record;
#X obj 39 346 vu 15 120 empty empty -1 -8 0 10 -66577 -1 1 0;
#X obj 38 289 env~;
#X obj 38 319 - 100;
#X msg 336 89 clear;
#X msg 301 89 play;
#X msg 185 89 0;
#X text 154 68 Loop size;
#X obj 490 61 savepanel;
#X obj 383 61 openpanel;
#X msg 383 34 symbol ~/music/;
#X msg 490 34 symbol ~/music/;
#X msg 490 89 save \$1;
#X msg 383 89 load \$1;
#X text 381 13 Save loop;
#X text 487 13 Load loop;
#X text 217 13 Control looper;
#X text 429 441 SIMPLE LOOPER;
#X text 430 457 <elboulangero@gmail.com>;
#X connect 0 0 6 0;
#X connect 0 0 4 0;
#X connect 1 0 4 1;
#X connect 3 0 1 0;
#X connect 3 2 8 0;
#X connect 3 3 13 0;
#X connect 4 0 2 0;
#X connect 4 0 2 1;
#X connect 4 0 10 0;
#X connect 6 0 7 0;
#X connect 7 0 5 0;
#X connect 8 0 4 1;
#X connect 10 0 11 0;
#X connect 11 0 9 0;
#X connect 12 0 4 1;
#X connect 13 0 4 1;
#X connect 14 0 4 1;
#X connect 16 0 20 0;
#X connect 17 0 21 0;
#X connect 18 0 17 0;
#X connect 19 0 16 0;
#X connect 20 0 4 1;
#X connect 21 0 4 1;
