#N canvas 433 64 1197 911 10;
#X declare -stdpath extra/moocow -stdlib extra/pdstring;
#X obj 74 20 adc~;
#X msg 99 298 stop;
#X obj 82 698 output~;
#X obj 99 270 arduino-driver;
#X obj 34 111 vu 15 120 empty empty -1 -8 0 10 -66577 -1 1 0;
#X obj 33 57 env~;
#X obj 33 83 - 100;
#X msg 153 298 record;
#X obj 500 880 send~ \$0-output;
#X obj 82 666 receive~ \$0-output;
#X obj 35 752 vu 15 120 empty empty -1 -8 0 10 -66577 -1 1 0;
#X obj 34 698 env~;
#X obj 34 724 - 100;
#X obj 471 77 receive~ \$0-input;
#X msg 233 298 clear;
#X msg 199 298 play;
#X msg 45 298 0;
#X text 19 278 Loop length;
#X obj 884 403 looper-sync;
#X obj 153 504 route 1 2 3 4;
#X obj 153 478 list prepend 1;
#X text 209 451 Loop number;
#X floatatom 884 380 5 2 16 0 - - -;
#X obj 433 676 s \$0-sync-loop;
#X obj 433 650 list prepend 2;
#X obj 1027 372 r \$0-sync-loop;
#X obj 884 482 route 1 2 3 4;
#X obj 569 676 s \$0-sync-loop;
#X obj 569 650 list prepend 3;
#X obj 700 676 s \$0-sync-loop;
#X obj 700 650 list prepend 4;
#X obj 298 704 vsl 15 64 0.01 1 0 1 empty empty empty 0 -9 0 10 -262144
-1 -1 6300 1;
#X obj 283 780 *~;
#X obj 443 704 vsl 15 64 0.01 1 0 1 empty empty empty 0 -9 0 10 -262144
-1 -1 6300 1;
#X obj 426 780 *~;
#X obj 579 704 vsl 15 64 0.01 1 0 1 empty empty empty 0 -9 0 10 -262144
-1 -1 6300 1;
#X obj 562 780 *~;
#X obj 710 704 vsl 15 64 0.01 1 0 1 empty empty empty 0 -9 0 10 -262144
-1 -1 6300 1;
#X obj 693 780 *~;
#X obj 1043 131 receive~ \$0-output;
#X msg 945 141 start;
#X msg 960 114 stop;
#X msg 326 180 stop;
#X msg 367 180 play;
#X obj 1013 178 writesf~ 2;
#X obj 778 176 folderpanel;
#X obj 760 150 bng 15 250 50 0 empty empty empty 17 7 0 10 -262144
-1 -1;
#X obj 290 649 list prepend 1;
#X obj 290 675 s \$0-sync-loop;
#X obj 623 105 folderpanel;
#X obj 605 79 bng 15 250 50 0 empty empty empty 17 7 0 10 -262144 -1
-1;
#X msg 1013 54 symbol ~/music/;
#X obj 1013 79 savepanel;
#X msg 1013 104 open \$1;
#X obj 426 591 looper~;
#X obj 283 591 looper~;
#X obj 562 591 looper~;
#X obj 693 591 looper~;
#X msg 766 206 save \$1/01.wav;
#X msg 778 227 save \$1/02.wav;
#X msg 790 248 save \$1/03.wav;
#X msg 803 269 save \$1/04.wav;
#X msg 616 160 load \$1/01.wav;
#X msg 627 181 load \$1/02.wav;
#X msg 640 202 load \$1/03.wav;
#X msg 652 223 load \$1/04.wav;
#X obj 623 128 t s s s s;
#X msg 623 78 symbol ~/music;
#X msg 778 149 symbol ~/music;
#X msg 219 339 1;
#X floatatom 234 435 5 0 0 0 - - -;
#X obj 219 362 + 0;
#X obj 219 385 moses 5;
#X msg 258 409 1;
#X obj 74 56 send~ \$0-input;
#X text 904 793 SYNCED LOOPERS;
#X text 904 808 <elboulangero@gmail.com>;
#X obj 887 331 hsl 128 15 0 16 0 0 empty empty empty -2 -8 0 10 -262144
-1 -1 0 1;
#X text 882 311 Number of beats per bar;
#X obj 884 356 int;
#X msg 282 180 clear;
#X text 280 154 GLOBAL CONTROLS;
#X text 96 244 ARDUINO INPUT;
#X text 468 53 AUDIO INPUT;
#X text 1009 26 SAVE SESSION;
#X text 602 55 LOAD LOOPS;
#X text 756 129 SAVE LOOPS;
#X text 905 864 Global output can be saved to wave file;
#X text 905 849 Each looper has its own output gain;
#X text 905 834 4 loopers kept synchronized;
#X text 905 879 Session can be loaded/saved from/to directory;
#X connect 0 0 5 0;
#X connect 0 0 74 0;
#X connect 1 0 20 0;
#X connect 3 0 1 0;
#X connect 3 1 69 0;
#X connect 3 2 7 0;
#X connect 3 3 15 0;
#X connect 5 0 6 0;
#X connect 6 0 4 0;
#X connect 7 0 20 0;
#X connect 9 0 2 0;
#X connect 9 0 11 0;
#X connect 9 0 2 1;
#X connect 11 0 12 0;
#X connect 12 0 10 0;
#X connect 13 0 54 0;
#X connect 13 0 55 0;
#X connect 13 0 56 0;
#X connect 13 0 57 0;
#X connect 14 0 20 0;
#X connect 15 0 20 0;
#X connect 16 0 20 0;
#X connect 18 0 26 0;
#X connect 19 0 55 1;
#X connect 19 1 54 1;
#X connect 19 2 56 1;
#X connect 19 3 57 1;
#X connect 20 0 19 0;
#X connect 22 0 18 0;
#X connect 24 0 23 0;
#X connect 25 0 18 1;
#X connect 26 0 55 1;
#X connect 26 1 54 1;
#X connect 26 2 56 1;
#X connect 26 3 57 1;
#X connect 28 0 27 0;
#X connect 30 0 29 0;
#X connect 31 0 32 1;
#X connect 32 0 8 0;
#X connect 33 0 34 1;
#X connect 34 0 8 0;
#X connect 35 0 36 1;
#X connect 36 0 8 0;
#X connect 37 0 38 1;
#X connect 38 0 8 0;
#X connect 39 0 44 0;
#X connect 39 0 44 1;
#X connect 40 0 44 0;
#X connect 41 0 44 0;
#X connect 42 0 54 1;
#X connect 42 0 55 1;
#X connect 42 0 56 1;
#X connect 42 0 57 1;
#X connect 43 0 54 1;
#X connect 43 0 55 1;
#X connect 43 0 56 1;
#X connect 43 0 57 1;
#X connect 45 0 58 0;
#X connect 45 0 59 0;
#X connect 45 0 60 0;
#X connect 45 0 61 0;
#X connect 46 0 45 0;
#X connect 47 0 48 0;
#X connect 49 0 66 0;
#X connect 50 0 49 0;
#X connect 51 0 52 0;
#X connect 52 0 53 0;
#X connect 53 0 44 0;
#X connect 54 0 34 0;
#X connect 54 1 24 0;
#X connect 55 0 32 0;
#X connect 55 1 47 0;
#X connect 56 0 36 0;
#X connect 56 1 28 0;
#X connect 57 0 38 0;
#X connect 57 1 30 0;
#X connect 58 0 55 1;
#X connect 59 0 54 1;
#X connect 60 0 56 1;
#X connect 61 0 57 1;
#X connect 62 0 55 1;
#X connect 63 0 54 1;
#X connect 64 0 56 1;
#X connect 65 0 57 1;
#X connect 66 0 65 0;
#X connect 66 1 64 0;
#X connect 66 2 63 0;
#X connect 66 3 62 0;
#X connect 67 0 49 0;
#X connect 68 0 45 0;
#X connect 69 0 71 0;
#X connect 70 0 71 1;
#X connect 70 0 20 1;
#X connect 71 0 72 0;
#X connect 72 0 70 0;
#X connect 72 1 73 0;
#X connect 73 0 70 0;
#X connect 77 0 79 0;
#X connect 79 0 22 0;
#X connect 80 0 55 1;
#X connect 80 0 54 1;
#X connect 80 0 56 1;
#X connect 80 0 57 1;
